<svg xmlns="http://www.w3.org/2000/svg" width="47" height="30" viewBox="0 0 47 30">
  <g fill="#191919">
    <path d="M13.7500659 6C14.2000703 6 14.5000439 5.70002637 14.5000439 5.25002197 14.5000439 4.80001758 14.8000176 4.50004395 15.250022 4.50004395 15.7000264 4.50004395 16 4.20007031 16 3.75006592 16 3.30006152 15.7000264 3 15.250022 3 13.9749802 3 13 3.97498022 13 5.25002197 13 5.70002637 13.3000615 6 13.7500659 6zM7.75006592 16C8.20007031 16 8.50004395 15.7000176 8.50004395 15.25 8.50004395 14.7999824 8.80001758 14.5 9.25002197 14.5 9.70002637 14.5 10 14.2000176 10 13.75 10 13.2999824 9.70002637 13 9.25002197 13 7.97498022 13 7 13.9750088 7 15.2500879 7.00008789 15.7000176 7.30006152 16 7.75006592 16zM6 22.749978C6 22.2999736 5.70002637 22 5.25002197 22 3.97498022 22 3 22.9749802 3 24.250022 3 24.7000264 3.29997363 25 3.74997803 25 4.19998242 25 4.49995605 24.7000264 4.49995605 24.250022 4.49995605 23.8000176 4.79992969 23.5000439 5.24993408 23.5000439 5.69993848 23.5000439 6 23.1999824 6 22.749978zM15.2500879 22C13.9750088 22 13 22.9749802 13 24.250022 13 24.7000264 13.2999824 25 13.75 25 14.2000176 25 14.5 24.7000264 14.5 24.250022 14.5 23.8000176 14.7999824 23.5000439 15.25 23.5000439 15.7000176 23.5000439 16 23.2000703 16 22.7500659 16 22.3000615 15.7001055 22 15.2500879 22zM26.8749744 8L32.1250256 8C32.6500308 8 33 7.60002344 33 7 33 6.39997656 32.6500308 6 32.1250256 6L26.8749744 6C26.3499692 6 26 6.39997656 26 7 26 7.60002344 26.3499692 8 26.8749744 8zM27 5L28 5C28.6000234 5 29 4.60004687 29 4.00005859 29 3.40007031 28.6000234 3 28 3L27 3C26.3999766 3 26 3.39995313 26 3.99994141 26 4.59992969 26.3999766 5 27 5zM16.7500659 16C17.2000703 16 17.5000439 15.7000176 17.5000439 15.25 17.5000439 14.7999824 17.8000176 14.5 18.250022 14.5 18.7000264 14.5 19 14.2000176 19 13.75 19 13.2999824 18.7000264 13 18.250022 13 16.9749802 13 16 13.9750088 16 15.2500879 16.0000879 15.7000176 16.3000615 16 16.7500659 16zM30.8749744 17L36.1250256 17C36.6500308 17 37 16.6000234 37 16 37 15.3999766 36.6500308 15 36.1250256 15L30.8749744 15C30.3499692 15 30 15.3999766 30 16 30 16.6000234 30.3499692 17 30.8749744 17zM32 15L33 15C33.6000234 15 34 14.6000234 34 14 34 13.3999766 33.6000234 13 33 13L32 13C31.3999766 13 31 13.3999766 31 14 31 14.6000234 31.3999766 15 32 15zM24.250022 22C22.9749802 22 22 22.9749802 22 24.250022 22 24.7000264 22.2999736 25 22.749978 25 23.1999824 25 23.5000439 24.7000264 23.5000439 24.250022 23.5000439 23.8000176 23.8000176 23.5000439 24.250022 23.5000439 24.7000264 23.5000439 25 23.2000703 25 22.7500659 25 22.3000615 24.7000264 22 24.250022 22zM42.1250256 26L36.8749744 26C36.3499692 26 36 26.3999766 36 27 36 27.6000234 36.3499692 28 36.8749744 28L42.1250256 28C42.6500308 28 43 27.6000234 43 27 43 26.3999766 42.6500308 26 42.1250256 26zM37.6666667 24L38.3333333 24C38.733349 24 39 23.6000234 39 23 39 22.3999766 38.733349 22 38.3333333 22L37.6666667 22C37.266651 22 37 22.3999766 37 23 37 23.6000234 37.266651 24 37.6666667 24z"/>
    <path d="M46.7624297,26.1031992 C46.9167402,25.5890843 47,25.0423109 47,24.4737037 C47,23.9058366 46.916832,23.3598034 46.7629805,22.846336 C46.7542598,22.6601926 46.6966113,22.5000463 46.5982969,22.3770916 C45.7877305,20.3547705 43.8328242,18.9473149 41.5166055,18.9473149 L39.8897812,18.9473149 C40.4302812,18.4109959 40.8583301,17.7606965 41.1396875,17.0328681 C41.219,16.9208304 41.2696719,16.7841834 41.2790352,16.6294955 C41.4333457,16.1153806 41.5166055,15.5686073 41.5166055,15 C41.5166055,14.4321329 41.4334375,13.8860997 41.2795859,13.3726323 C41.2708652,13.1864889 41.2132168,13.0263426 41.1149023,12.9034805 C40.3043359,10.8811593 38.3494297,9.47370369 36.0332109,9.47370369 L35.9729922,9.47370369 C36.5134922,8.93738474 36.941541,8.28708529 37.2228984,7.55916439 C37.3021191,7.44712674 37.3528828,7.31047967 37.3622461,7.15579185 C37.5165566,6.64167689 37.5999082,6.09490357 37.5999082,5.52629631 C37.5999082,4.95842919 37.5167402,4.412396 37.3628887,3.89892866 C37.354168,3.71278518 37.2965195,3.55263888 37.1982969,3.42977679 C36.3877305,1.40745561 34.4328242,0 32.1166055,0 L14.8833027,0 C11.8283027,0 9.4,2.44734261 9.4,5.52629631 C9.4,7.306779 10.2131367,8.87493601 11.4888379,9.88188709 C10.8465352,9.61913984 10.1419941,9.47370369 9.4,9.47370369 C6.345,9.47370369 3.91669727,11.9210463 3.91669727,15 C3.91669727,16.5559448 4.53742773,17.949893 5.54517383,18.9488876 C5.52451953,18.9487026 5.50414062,18.9473149 5.48339453,18.9473149 C2.42830273,18.9474074 0,21.39475 0,24.4737037 C0,27.5526574 2.42830273,30 5.48330273,30 L14.8833027,30 L24.2833027,30 L41.5166055,30 C43.8570586,30 45.8282129,28.5628466 46.6229902,26.5065718 C46.7023027,26.3945341 46.7530664,26.257887 46.7624297,26.1031992 Z M36.0333027,11.0525926 C37.3384707,11.0525926 38.4770273,11.6677357 39.1852402,12.6315741 L35.25,12.6315741 C34.78,12.6315741 34.4666973,12.9473334 34.4666973,13.4210185 C34.4666973,13.8947037 34.78,14.210463 35.25,14.210463 L39.8742676,14.210463 C39.9238379,14.4649763 39.95,14.7288337 39.95,14.9999075 C39.95,15.2709812 39.9237461,15.5348387 39.8742676,15.789352 L38.3833945,15.789352 C37.9133945,15.789352 37.6000918,16.1051112 37.6000918,16.5787964 C37.6000918,17.0524816 37.9133945,17.3682409 38.3833945,17.3682409 L39.185332,17.3682409 C38.4771191,18.3320792 37.3385625,18.9472223 36.0333945,18.9472223 L24.2833945,18.9472223 L22.6565703,18.9472223 C23.112709,18.4947235 23.489168,17.9612725 23.7646504,17.3682409 L26.6333945,17.3682409 C27.1033945,17.3682409 27.4166973,17.0524816 27.4166973,16.5787964 C27.4166973,16.1051112 27.1033945,15.789352 26.6333945,15.789352 L24.2281328,15.789352 C24.2382305,15.7167264 24.2479609,15.6439158 24.2553047,15.57018 C24.256498,15.5577828 24.256957,15.5450155 24.2581504,15.5326183 C24.2655859,15.4516662 24.2722871,15.3703441 24.2763262,15.2879118 C24.2810996,15.1925271 24.2834863,15.0965874 24.2834863,14.9999075 C24.2834863,14.9032276 24.2810996,14.8071953 24.2763262,14.7119032 C24.2722871,14.6295634 24.2656777,14.5482413 24.2581504,14.4671967 C24.256957,14.4547069 24.2565898,14.4420322 24.2553047,14.4296349 C24.2479609,14.3558067 24.2382305,14.2830886 24.2281328,14.210463 L28.2,14.210463 C28.67,14.210463 28.9833027,13.8947037 28.9833027,13.4210185 C28.9833027,12.9473334 28.67,12.6315741 28.2,12.6315741 L23.7645586,12.6315741 C23.4889844,12.0386349 23.1125254,11.505184 22.6564785,11.0525926 L32.1166973,11.0525926 L36.0333027,11.0525926 L36.0333027,11.0525926 Z M24.2833027,28.4211111 C22.09,28.4211111 20.3666055,26.6842962 20.3666055,24.4737037 C20.3666055,22.2632037 22.0899082,20.5262963 24.2833027,20.5262963 C26.4766055,20.5262963 28.2,22.2631111 28.2,24.4737037 C28.2,26.6842037 26.4766973,28.4211111 24.2833027,28.4211111 Z M14.8833027,28.4211111 C12.69,28.4211111 10.9666055,26.6842962 10.9666055,24.4737037 C10.9666055,22.2632037 12.6899082,20.5262963 14.8833027,20.5262963 C17.0766055,20.5262963 18.8,22.2631111 18.8,24.4737037 C18.8,26.6842037 17.0766973,28.4211111 14.8833027,28.4211111 Z M18.8,11.0525926 C20.9933027,11.0525926 22.7166973,12.7894075 22.7166973,15 C22.7166973,17.2105925 20.9933945,18.9474074 18.8,18.9474074 C16.6066973,18.9474074 14.8833027,17.2105925 14.8833027,15 C14.8833027,12.7894075 16.6066973,11.0525926 18.8,11.0525926 Z M18.8,20.5262963 L20.4268242,20.5262963 C20.1032402,20.8474216 19.8191289,21.2087915 19.5833027,21.6037451 C19.3470176,21.2081439 19.0624473,20.8462188 18.7381289,20.5247235 C18.758875,20.5250011 18.7792539,20.5262963 18.8,20.5262963 Z M14.9451738,18.9488876 C14.9245195,18.9487026 14.9041406,18.9473149 14.8833945,18.9473149 C14.1414004,18.9473149 13.4368594,19.092751 12.7945566,19.3554983 C13.3142188,18.9452795 13.7577813,18.4429142 14.1000918,17.8698661 C14.3362852,18.2655598 14.6208555,18.6274848 14.9451738,18.9488876 Z M32.1166973,1.57888894 C33.4218652,1.57888894 34.5604219,2.19403206 35.2686348,3.15787039 L31.3333027,3.15787039 C30.8633027,3.15787039 30.55,3.47362967 30.55,3.94731486 C30.55,4.42100004 30.8633027,4.73675933 31.3333027,4.73675933 L35.9575703,4.73675933 C36.0071406,4.9912726 36.0333027,5.25513005 36.0333027,5.5262038 C36.0333027,5.79727754 36.0070488,6.06113499 35.9575703,6.31564826 L34.4666973,6.31564826 C33.9966973,6.31564826 33.6833945,6.63140755 33.6833945,7.10509273 C33.6833945,7.57877792 33.9966973,7.8945372 34.4666973,7.8945372 L35.2686348,7.8945372 C34.5604219,8.85837553 33.4218652,9.47351865 32.1166973,9.47351865 L18.8,9.47351865 L18.7397813,9.47351865 C19.1959199,9.02101978 19.5723789,8.48756885 19.8478613,7.8945372 L22.7166055,7.8945372 C23.1866055,7.8945372 23.4999082,7.57877792 23.4999082,7.10509273 C23.4999082,6.63140755 23.1866055,6.31564826 22.7166055,6.31564826 L20.3113437,6.31564826 C20.3214414,6.2430227 20.3311719,6.17021211 20.3385156,6.09647635 C20.339709,6.08407912 20.340168,6.07131182 20.3413613,6.05891459 C20.3487969,5.97796254 20.355498,5.89664041 20.3595371,5.81420809 C20.3643105,5.71882344 20.3666973,5.62288368 20.3666973,5.5262038 C20.3666973,5.42952391 20.3643105,5.33349164 20.3595371,5.2381995 C20.355498,5.1558597 20.3488887,5.07453757 20.3413613,4.993493 C20.340168,4.98100325 20.3398008,4.96832847 20.3385156,4.95593124 C20.3311719,4.88210296 20.3214414,4.80938489 20.3113437,4.73675933 L24.2833027,4.73675933 C24.7533027,4.73675933 25.0666055,4.42100004 25.0666055,3.94731486 C25.0666055,3.47362967 24.7533027,3.15787039 24.2833027,3.15787039 L19.8478613,3.15787039 C19.5722871,2.56493126 19.1958281,2.03148033 18.7397813,1.57888894 L32.1166973,1.57888894 Z M10.9666973,5.52629631 C10.9666973,3.31579629 12.69,1.57888894 14.8833945,1.57888894 C17.0766973,1.57888894 18.8000918,3.31570377 18.8000918,5.52629631 C18.8000918,7.73679633 17.0767891,9.47370369 14.8833945,9.47370369 C12.69,9.47370369 10.9666973,7.73679633 10.9666973,5.52629631 Z M14.8833027,11.0525926 L14.9435215,11.0525926 C14.6199375,11.3737179 14.3358262,11.7350879 14.1,12.1300414 C13.7577813,11.5569933 13.3142188,11.0545355 12.7944648,10.6444092 C13.4367676,10.9071565 14.1413086,11.0525926 14.8833027,11.0525926 Z M5.48330273,15 C5.48330273,12.7895 7.20660547,11.0525926 9.4,11.0525926 C11.5933027,11.0525926 13.3166973,12.7894075 13.3166973,15 C13.3166973,17.2105925 11.5933945,18.9474074 9.4,18.9474074 C7.20669727,18.9474074 5.48330273,17.2105 5.48330273,15 Z M9.4,20.5262963 C10.1419941,20.5262963 10.8465352,20.3808602 11.4888379,20.1181129 C10.9691758,20.5283317 10.5256133,21.030697 10.1833027,21.6037451 C9.94701758,21.2081439 9.66244727,20.8462188 9.33812891,20.5247235 C9.358875,20.5250011 9.37925391,20.5262963 9.4,20.5262963 Z M1.56669727,24.4737037 C1.56669727,22.2632037 3.29,20.5262963 5.48339453,20.5262963 C7.67678906,20.5262963 9.4,22.2632037 9.4,24.4737037 C9.4,26.6842037 7.67669727,28.4211111 5.48330273,28.4211111 C3.2899082,28.4211111 1.56669727,26.6842037 1.56669727,24.4737037 Z M9.33978125,28.4211111 C9.66336523,28.0999858 9.94747656,27.7386158 10.1833027,27.3436623 C10.4192207,27.7386158 10.7032402,28.0999858 11.0268242,28.4211111 L9.33978125,28.4211111 Z M18.7397813,28.4211111 C19.0633652,28.0999858 19.3474766,27.7386158 19.5833027,27.3436623 C19.8192207,27.7386158 20.1032402,28.0999858 20.4268242,28.4211111 L18.7397813,28.4211111 Z M41.5166973,28.4211111 L28.1397813,28.4211111 C28.5959199,27.9686122 28.9723789,27.4351613 29.2478613,26.8421296 L32.1166055,26.8421296 C32.5866055,26.8421296 32.8999082,26.5263703 32.8999082,26.0526851 C32.8999082,25.579 32.5866055,25.2632407 32.1166055,25.2632407 L29.7113438,25.2632407 C29.7214414,25.1906151 29.7311719,25.1178045 29.7385156,25.0440688 C29.739709,25.0316715 29.740168,25.0189042 29.7413613,25.006507 C29.7487969,24.9255549 29.755498,24.8442328 29.7595371,24.7618005 C29.7643105,24.6664158 29.7666973,24.5704761 29.7666973,24.4737962 C29.7666973,24.3771163 29.7643105,24.281084 29.7595371,24.1857919 C29.755498,24.1034521 29.7488887,24.02213 29.7413613,23.9410854 C29.740168,23.9285957 29.7398008,23.9159209 29.7385156,23.9035237 C29.7311719,23.8296954 29.7214414,23.7569773 29.7113438,23.6843517 L33.6833027,23.6843517 C34.1533027,23.6843517 34.4666055,23.3685925 34.4666055,22.8949073 C34.4666055,22.4212221 34.1533027,22.1054628 33.6833027,22.1054628 L29.2478613,22.1054628 C28.9722871,21.5125237 28.5958281,20.9790727 28.1397813,20.5264813 L36.0333027,20.5264813 L41.5166055,20.5264813 C42.8217734,20.5264813 43.9603301,21.1416245 44.668543,22.1054628 L40.7332109,22.1054628 C40.2632109,22.1054628 39.9499082,22.4212221 39.9499082,22.8949073 C39.9499082,23.3685925 40.2632109,23.6843517 40.7332109,23.6843517 L45.3574785,23.6843517 C45.4070488,23.938865 45.4332109,24.2027225 45.4332109,24.4737962 C45.4332109,24.74487 45.406957,25.0087274 45.3574785,25.2632407 L43.8666055,25.2632407 C43.3966055,25.2632407 43.0833027,25.579 43.0833027,26.0526851 C43.0833027,26.5263703 43.3966055,26.8421296 43.8666055,26.8421296 L44.668543,26.8421296 C43.9604219,27.8059679 42.8217734,28.4211111 41.5166973,28.4211111 Z"/>
  </g>
</svg>
