<svg xmlns="http://www.w3.org/2000/svg" width="35" height="35" viewBox="0 0 35 35">
  <g fill="#191919">
    <path d="M34.8250169,10.499988 L32.911226,8.58619804 C32.8821049,8.51954762 32.8396537,8.45631516 32.7833255,8.39998701 C32.7269973,8.34365886 32.6637648,8.30120767 32.5971144,8.27208656 L24.5000068,0.174982996 C24.2666961,-0.0583276652 23.9166957,-0.0583276652 23.6833166,0.174982996 L0.174983081,23.683305 C-0.0583276937,23.9166157 -0.0583276937,24.2666159 0.174983081,24.4999949 L10.4999932,34.8249999 C10.6166827,34.9416894 10.7333039,35 10.9083041,35 C11.0833043,35 11.1999938,34.9416894 11.3166151,34.8249999 L34.8250169,11.3166779 C35.0583277,11.0832989 35.0583277,10.7332987 34.8250169,10.499988 Z M10.9083041,33.5999993 L9.68330291,32.3749987 L14.2333074,27.8249965 C14.4666181,27.5916858 14.4666181,27.2416857 14.2333074,27.0083066 C13.9999966,26.774996 13.6499962,26.774996 13.4166171,27.0083066 L8.86661266,31.5583089 L7.58330086,30.2749977 L9.216613,28.6416863 C9.44992378,28.4083757 9.44992378,28.0583755 9.216613,27.8249965 C8.98330223,27.5916175 8.63330189,27.5916858 8.39992275,27.8249965 L6.76661061,29.4583078 L5.54160942,28.2333072 L10.0916139,23.683305 C10.3249246,23.4499944 10.3249246,23.0999942 10.0916139,22.8666152 C9.85830308,22.6333045 9.50830274,22.6333045 9.27492361,22.8666152 L4.72491916,27.4166174 L3.49991797,26.1916168 L10.0916139,19.5999241 C10.3249246,19.3666135 10.3249246,19.0166133 10.0916139,18.7832343 C9.85830308,18.5498552 9.50830274,18.5499236 9.27492361,18.7832343 L2.68329608,25.3749953 L1.39998428,24.0916841 L24.0916959,1.39998359 L27.4166991,4.72498522 L23.2750056,8.86667669 C23.0416949,9.09998735 23.0416949,9.44998752 23.2750056,9.68336654 C23.3916952,9.80005605 23.5083164,9.85836663 23.6833166,9.85836663 C23.8583168,9.85836663 23.9750063,9.80005605 24.0916275,9.68336654 L28.233321,5.54167507 L29.4875117,6.79586513 L27.8250101,8.45836595 C27.5916993,8.69167661 27.5916993,9.04167678 27.8250101,9.2750558 C27.9416997,9.39174531 28.0583209,9.45005588 28.233321,9.45005588 C28.4083212,9.45005588 28.5250108,9.39174531 28.641632,9.2750558 L30.3041336,7.61255499 L31.5291348,8.83755558 L29.0499429,11.3167462 C28.8166321,11.5500569 28.8166321,11.9000571 29.0499429,12.1334361 C29.1666325,12.2501256 29.2832537,12.3084362 29.4582539,12.3084362 C29.633254,12.3084362 29.7499436,12.2501256 29.8665648,12.1334361 L32.3457567,9.65424544 L33.5999474,10.9084355 L10.9083041,33.5999993 Z"/>
    <path d="M12.6250294 17C12.8125291 17 13.0000288 16.9375249 13.0625043 16.8125016L18.8125186 11.0625248C19.0624938 10.8125513 19.0624938 10.4375544 18.8125186 10.1875076 18.5625435 9.93746085 18.1875441 9.93753409 17.9374957 10.1875076L12.1874814 15.9374844C11.9375062 16.1874579 11.9375062 16.5624548 12.1874814 16.8125016 12.3125056 16.9375249 12.4375298 17 12.6250294 17zM19.476217 8C19.5714744 8 19.7143325 7.95239964 19.8095341 7.85714311L22.8571558 4.80954798C23.0476147 4.61909072 23.0476147 4.33337693 22.8571558 4.14286387 22.6666969 3.95235081 22.3809806 3.95240661 22.1904659 4.14286387L19.1428442 7.190459C18.9523853 7.38091626 18.9523853 7.66663005 19.1428442 7.85714311 19.2381574 7.95239964 19.3333589 8 19.476217 8zM21.1169232 10.1558287L18.1558317 13.1168639C17.9480561 13.3246356 17.9480561 13.6363235 18.1558317 13.844156 18.2597499 13.9480723 18.3636073 14 18.5194542 14 18.6753012 14 18.8311481 13.9480723 18.8830768 13.844156L21.8441683 10.8831208C22.0519439 10.6753492 22.0519439 10.3636613 21.8441683 10.1558287 21.6363927 9.94805709 21.3246988 9.94805709 21.1169232 10.1558287zM22.1714703 13.8285726C22.2857783 13.9428799 22.4000193 14 22.5714477 14 22.7428762 14 22.8571841 13.9428799 22.9714251 13.8285726L25.8285883 10.9714274C26.0571372 10.7428799 26.0571372 10.4000251 25.8285883 10.1714106 25.6000393 9.94286312 25.2571824 9.94286312 25.0285665 10.1714106L22.1714033 13.0285559C21.9428544 13.2571704 21.9428544 13.6000251 22.1714703 13.8285726zM15.7000209 21.3000165C15.2999901 20.8999945 14.6999733 20.8999945 14.3000011 21.3000165 13.9000289 21.7000385 13.8999703 22.3000421 14.3000011 22.7000055 14.7000319 23.0999689 15.3000487 23.1000275 15.7000209 22.7000055 16.099993 22.2999835 16.099993 21.7000385 15.7000209 21.3000165z"/>
    <path d="M16.8125186 16.9289844C17.0624938 16.7104281 17.0624938 16.3825616 16.8125186 16.1639413 16.5625435 15.9453209 16.1875441 15.9453849 15.9374957 16.1639413L11.9375271 19.6611625C10.9375533 20.5354518 10.6250294 22.4480276 11.5625278 23.8688038L10.1874814 25.0710236C9.93750621 25.2895799 9.93750621 25.6174464 10.1874814 25.8360668 10.3125056 25.9453769 10.4374565 26 10.6249562 26 10.8124559 26 10.9374801 25.9453769 11.1249797 25.7814437L12.8749523 24.2514214C13.1249274 24.0874882 13.1249274 23.7596217 12.9374277 23.5410654 11.9999294 22.5574659 12.2499045 20.9727565 12.8749523 20.4263337L16.8125186 16.9289844zM17.81255 19.4262206L21.8125186 15.9289686C22.0624938 15.7104103 22.0624938 15.382541 21.8125186 15.1639187 21.5625435 14.9453604 21.1875441 14.9453604 20.9374957 15.1639187L16.4999791 19.0437277C16.3749549 19.1530388 16.3124794 19.2622859 16.3124794 19.4262206 16.3124794 19.5901553 16.3749549 19.6994664 16.4999791 19.8087135 16.8749784 20.1365829 17.3124532 20.6830105 17.375002 21.2841257 17.4374774 21.8305533 17.1250268 22.377045 16.4999791 22.9234726L15.1874814 24.0710154C14.9375062 24.2895737 14.9375062 24.617443 15.1874814 24.8360653 15.3125056 24.9453764 15.4374565 25 15.6249562 25 15.8124559 25 15.9374801 24.9453764 16.062431 24.7814418L17.3749287 23.6338989C18.2499516 22.868849 18.6874264 22.0491756 18.624951 21.1748786 18.5625487 20.5737634 18.3125736 19.9726482 17.81255 19.4262206zM24.0659831 16.1648415L20.1648208 20.0659221C19.9450597 20.2856786 19.9450597 20.6153456 20.1648208 20.8351665 20.2747336 20.945077 20.384582 21 20.5494189 21 20.6593316 21 20.8241686 20.945077 20.9340169 20.8351665L24.8351792 16.9340859C25.0549403 16.7143294 25.0549403 16.3846624 24.8351792 16.1648415 24.615418 15.9450206 24.2857442 15.945085 24.0659831 16.1648415zM27.0000345 13.176498L26.1764584 14.0000172C25.9411805 14.2352789 25.9411805 14.5882059 26.1764584 14.8235365 26.2941318 14.9412018 26.4117363 15 26.588212 15 26.7058854 15 26.8823611 14.9412018 26.9999655 14.8235365L27.8235416 14.0000172C28.0588195 13.7647556 28.0588195 13.4118286 27.8235416 13.176498 27.5883326 12.9411673 27.2353813 12.9411673 27.0000345 13.176498z"/>
  </g>
</svg>
