<?xml version="1.0" encoding="utf-8"?>
<!-- Generator: Adobe Illustrator 21.1.0, SVG Export Plug-In . SVG Version: 6.00 Build 0)  -->
<svg version="1.1" xmlns="http://www.w3.org/2000/svg" xmlns:xlink="http://www.w3.org/1999/xlink" x="0px" y="0px"
	 viewBox="0 0 159.6 49.7" style="enable-background:new 0 0 159.6 49.7;" xml:space="preserve">
<style type="text/css">
	.st0{display:none;}
	.st1{display:inline;fill:#FFFFFF;stroke:#FFFFFF;}
	.st2{fill:#E30613;}
</style>
<g id="Laag_1" class="st0">
	<path class="st1" d="M158.9,42.8c-5.1-3.7-13.2-0.3-18,1.3c-4.8,1.6-6.2,0.6-6.2,0.6c-4.3-1.2-4.3-6.2-4.3-6.2
		c6.4-10.8,5.9-23.8,4.4-29.1c-1.5-5.3-5-2.7-5-2.7c-8.9,5.6-2.8,33.6-3.3,34.3c-0.5,0.7-2.9,2.6-4.9,3.5c-2,0.8-2.5-1.4-2.5-1.4
		s0.2-4.3,0.1-5.7c-0.2-1.3-0.3-1.4-2.3-1.7c-1.3-0.2-1.3,1.5-1.3,1.5c0-0.7-4.2-2.3-8.1-0.2c-2.9,1.6-2.9,6.1-2.9,6.1
		s-1.3,1.2-3,1.5c-1.7,0.3-2-1.9-2-1.9L100,25c0,0,3.2,0,4.5,0c1.3,0,1-1.6,0.3-1.6c-0.6,0-4.4,0-4.4,0l0-4.4
		c0.2-1.3-1.2-1.3-1.2-1.3l-3.2,2.8l-0.2,2.8c0,0-1.5,0-3.8,0c-1.5,0-1,1.6-0.1,1.6c0.9,0,3.1,0,4.2,0l0,0.7l-0.5,16.7
		c0,0-1.3,1.5-2.2,2.1c-0.8,0.7-1.5,0.2-1.5,0.2s-1.3-4-1.6-5.2c-0.3-1.2-0.3-2-1.6-2.7c-1.3-0.7-2.7-1.4-2.7-1.4
		c0.4-2.3-0.8-4.5-0.8-4.5c-2.8-3.5-4.7-1.4-4.7-1.4c-1.9,2.6,3.9,7.2,3.9,7.2c0,1.7-2.7,8-4.7,8.8c-2,0.8-2.5-0.7-2.5-0.7l0.1-6.5
		c0-3-1.6-2.3-2.8-2.7c-1.2-0.3-0.8,1.8-0.8,1.8s-4-2.6-7.7,0.2c-3.5,2.7-1.5,8.3-1.5,8.3c-6.9,1.9-8.1-3.1-8.8-4.5
		c-0.7-1.3-5.5-21.1-5.5-21.1c-2.8-5.7-5.2,1.1-5.2,1.1s-4.3,17.6-5,19.6c-0.7,2-1.7,2-1.7,2l-0.1-2.3c0,0-0.5-27.3-0.5-28.5
		c0-1.2-0.2-2-2.7-3.3c-2.5-1.3-3.3,2.7-3.3,2.7L26.4,39c-1,3.2-1.5,0-1.5,0l0.2-21.5C26.2,0.9,22,0.2,22,0.2
		C15.3-2.6,6,20.7,4.3,25.1c-1.5,3.7-8.2,22.4-1,24.5c7.2,2.1,16.2-17.4,16.2-17.4c-0.2-1.1-1.2,0.4-1.2,0.4
		C11,44.1,8.8,43.5,8.8,43.5C1,47.6,2.7,33.9,5.6,26c2.2-6.1,6.3-14.6,10.1-19.6C19.6,1.2,20.5,8,20.5,8S20,43,20.2,44.1
		c0.2,1.2-0.4,4,2.8,4.2c3.2,0.2,3.9-3.3,3.9-3.3l6.4-28.9c0,0-0.1,23.8-0.1,24.7c0,0.8-0.4,6.7,2.9,7c3.3,0.4,4.4-2.1,4.4-2.1
		s4.3-17.1,4.8-18.8c0.5-1.7,1.5-0.3,1.5-0.3L51,42.4c2.9,5.5,7.1,5.9,9.6,5.8c2.5-0.1,5.5-0.9,5.5-0.9c3.8,2.2,8-0.3,8-0.3
		c2.5,1.5,5.2,0.7,5.2,0.7c5-2.3,6.4-9.8,6.4-9.8c1.5,0.5,2.1,6.4,2.4,7.5c0.3,1.2,1,1.7,2.3,2.4c1.3,0.7,3.5-1.1,3.5-1.1
		c0.7-1.5,1.8-1.6,1.8-1.6c0.2,0.7,1,2.2,2.1,2.5c1.2,0.3,3.2,0.4,4.5-1.1c1.3-1.5,2.3-1.1,2.3-1.1c1.5,2,4.1,2.4,4.1,2.4
		c3.2,0.4,6.5-2.2,6.5-2.2c0.1,2.9,2.2,2.5,2.2,2.5c4.2,0.2,8.9-5.1,8.9-5.1s1.6,2.8,3.1,3.9c1.5,1,6.2,0.4,7.7-0.1
		c1.5-0.5,6.5-2.4,12-2.9c5.5-0.4,8.1,3.6,8.1,3.6c0.8,1.3,2.2,0.5,2.2,0.5L158.9,42.8z M84.5,33.8c-0.2,0.1-0.6-0.2-1-0.7
		c-0.3-0.5-0.4-1.1-0.2-1.2c0.2-0.1,0.6,0.2,1,0.7C84.6,33.2,84.7,33.7,84.5,33.8z M70.7,46.1c-1.6-0.4-3.5-3.2-2.3-5.9
		c1.2-2.7,3.8-2.5,5.4-0.1l0.1,5C73.8,45.1,72.3,46.5,70.7,46.1z M109.7,44.3c-1.3-1.8-2.1-6.4,2.1-7.1c0,0,3.8,0,3.6,4.2
		C115.2,45.5,111,46.1,109.7,44.3z M129.1,12.5c0.4-4.7,2-3.6,2-3.6c1.7-0.2,2.1,3.2,2.1,3.2c0.4,3.8,0.5,5.4,0.4,8.1
		c-0.2,11.4-3.4,15.3-3.4,15.3C128.8,32.6,128.8,17.1,129.1,12.5z"/>
</g>
<g id="Laag_1_copy">
	<path class="st2" d="M158.9,42.8c-5.1-3.7-13.2-0.3-18,1.3c-4.8,1.6-6.2,0.6-6.2,0.6c-4.3-1.2-4.3-6.2-4.3-6.2
		c6.4-10.8,5.9-23.8,4.4-29.1c-1.5-5.3-5-2.7-5-2.7c-8.9,5.6-2.8,33.6-3.3,34.3c-0.5,0.7-2.9,2.6-4.9,3.5c-2,0.8-2.5-1.4-2.5-1.4
		s0.2-4.3,0.1-5.7c-0.2-1.3-0.3-1.4-2.3-1.7c-1.3-0.2-1.3,1.5-1.3,1.5c0-0.7-4.2-2.3-8.1-0.2c-2.9,1.6-2.9,6.1-2.9,6.1
		s-1.3,1.2-3,1.5c-1.7,0.3-2-1.9-2-1.9L100,25c0,0,3.2,0,4.5,0c1.3,0,1-1.6,0.3-1.6c-0.6,0-4.4,0-4.4,0l0-4.4
		c0.2-1.3-1.2-1.3-1.2-1.3l-3.2,2.8l-0.2,2.8c0,0-1.5,0-3.8,0c-1.5,0-1,1.6-0.1,1.6c0.9,0,3.1,0,4.2,0l0,0.7l-0.5,16.7
		c0,0-1.3,1.5-2.2,2.1c-0.8,0.7-1.5,0.2-1.5,0.2s-1.3-4-1.6-5.2c-0.3-1.2-0.3-2-1.6-2.7c-1.3-0.7-2.7-1.4-2.7-1.4
		c0.4-2.3-0.8-4.5-0.8-4.5c-2.8-3.5-4.7-1.4-4.7-1.4c-1.9,2.6,3.9,7.2,3.9,7.2c0,1.7-2.7,8-4.7,8.8c-2,0.8-2.5-0.7-2.5-0.7l0.1-6.5
		c0-3-1.6-2.3-2.8-2.7c-1.2-0.3-0.8,1.8-0.8,1.8s-4-2.6-7.7,0.2c-3.5,2.7-1.5,8.3-1.5,8.3c-6.9,1.9-8.1-3.1-8.8-4.5
		c-0.7-1.3-5.5-21.1-5.5-21.1c-2.8-5.7-5.2,1.1-5.2,1.1s-4.3,17.6-5,19.6c-0.7,2-1.7,2-1.7,2l-0.1-2.3c0,0-0.5-27.3-0.5-28.5
		c0-1.2-0.2-2-2.7-3.3c-2.5-1.3-3.3,2.7-3.3,2.7L26.4,39c-1,3.2-1.5,0-1.5,0l0.2-21.5C26.2,0.9,22,0.2,22,0.2
		C15.3-2.6,6,20.7,4.3,25.1c-1.5,3.7-8.2,22.4-1,24.5c7.2,2.1,16.2-17.4,16.2-17.4c-0.2-1.1-1.2,0.4-1.2,0.4
		C11,44.1,8.8,43.5,8.8,43.5C1,47.6,2.7,33.9,5.6,26c2.2-6.1,6.3-14.6,10.1-19.6C19.6,1.2,20.5,8,20.5,8S20,43,20.2,44.1
		c0.2,1.2-0.4,4,2.8,4.2c3.2,0.2,3.9-3.3,3.9-3.3l6.4-28.9c0,0-0.1,23.8-0.1,24.7c0,0.8-0.4,6.7,2.9,7c3.3,0.4,4.4-2.1,4.4-2.1
		s4.3-17.1,4.8-18.8c0.5-1.7,1.5-0.3,1.5-0.3L51,42.4c2.9,5.5,7.1,5.9,9.6,5.8c2.5-0.1,5.5-0.9,5.5-0.9c3.8,2.2,8-0.3,8-0.3
		c2.5,1.5,5.2,0.7,5.2,0.7c5-2.3,6.4-9.8,6.4-9.8c1.5,0.5,2.1,6.4,2.4,7.5c0.3,1.2,1,1.7,2.3,2.4c1.3,0.7,3.5-1.1,3.5-1.1
		c0.7-1.5,1.8-1.6,1.8-1.6c0.2,0.7,1,2.2,2.1,2.5c1.2,0.3,3.2,0.4,4.5-1.1c1.3-1.5,2.3-1.1,2.3-1.1c1.5,2,4.1,2.4,4.1,2.4
		c3.2,0.4,6.5-2.2,6.5-2.2c0.1,2.9,2.2,2.5,2.2,2.5c4.2,0.2,8.9-5.1,8.9-5.1s1.6,2.8,3.1,3.9c1.5,1,6.2,0.4,7.7-0.1
		c1.5-0.5,6.5-2.4,12-2.9c5.5-0.4,8.1,3.6,8.1,3.6c0.8,1.3,2.2,0.5,2.2,0.5L158.9,42.8z M84.5,33.8c-0.2,0.1-0.6-0.2-1-0.7
		c-0.3-0.5-0.4-1.1-0.2-1.2c0.2-0.1,0.6,0.2,1,0.7C84.6,33.2,84.7,33.7,84.5,33.8z M70.7,46.1c-1.6-0.4-3.5-3.2-2.3-5.9
		c1.2-2.7,3.8-2.5,5.4-0.1l0.1,5C73.8,45.1,72.3,46.5,70.7,46.1z M109.7,44.3c-1.3-1.8-2.1-6.4,2.1-7.1c0,0,3.8,0,3.6,4.2
		C115.2,45.5,111,46.1,109.7,44.3z M129.1,12.5c0.4-4.7,2-3.6,2-3.6c1.7-0.2,2.1,3.2,2.1,3.2c0.4,3.8,0.5,5.4,0.4,8.1
		c-0.2,11.4-3.4,15.3-3.4,15.3C128.8,32.6,128.8,17.1,129.1,12.5z"/>
</g>
</svg>
